# xmcd
#
# Track frame offsets: 
#        150
#        16694
#        32458
#        46238
#        58372
#        74105
#        88225
#        103370
#        116916
#        129585
#        142119
#        153111
#        170309
#        192650
#        209453
#        225145
#        239802
#        257359
#        271617
#        281082
#        294738
#        307144
#        321398
#
# Disc length: 4475 seconds
#
# Revision: 3
# Processed by: cddbd v1.5.2PL0 Copyright (c) Steve Scherf et al.
# Submitted via: ExactAudioCopyFreeDBPlugin 1.0
#
DISCID=65117917
DTITLE=Linda Ronstadt - Best Of The Capitol Years - CD2
DYEAR=2006
DGENRE=Country
TTITLE0=Rock Me Over The Water
TTITLE1=Crazy Arms
TTITLE2=I Won't Be Hangin' Around
TTITLE3=I Still Miss Someone
TTITLE4=In My Reply
TTITLE5=I Fall To Pieces
TTITLE6=Ramblin' Round
TTITLE7=Birds
TTITLE8=I Ain't Always Been Faithful
TTITLE9=Rescue Me
TTITLE10=Can It Be True (Bonus Track)
TTITLE11=Long Long Time - (Live At The Troubadour, Los Angeles) (Bonus
TTITLE11=Track)
TTITLE12=Kate (Live At The Troubadour, Los Angeles) (Bonus Track)
TTITLE13=You're No Good
TTITLE14=It Doesn't Matter Anymore
TTITLE15=Faithless Love
TTITLE16=The Dark End Of The Street
TTITLE17=Heart Is Like A Wheel
TTITLE18=When Will I Be Loved
TTITLE19=Willing
TTITLE20=I Can't Help It (If I'm Still In Love With You)
TTITLE21=Keep Me From Blowing Away
TTITLE22=You Can Close Your Eyes
EXTD=
EXTT0=
EXTT1=
EXTT2=
EXTT3=
EXTT4=
EXTT5=
EXTT6=
EXTT7=
EXTT8=
EXTT9=
EXTT10=
EXTT11=
EXTT12=
EXTT13=
EXTT14=
EXTT15=
EXTT16=
EXTT17=
EXTT18=
EXTT19=
EXTT20=
EXTT21=
EXTT22=
PLAYORDER=
